REM DIRINDEX 1\2,1\3,1\4,1\5
REM DIRNAME cjc005,folder01,folder02,folder03,folder04
TITLE ""
FILE "P1Q_t_1120-1129.mp3" MP3
  TRACK 01 AUDIO
    TITLE "3:cjc005_4266"
    INDEX 01 00:00:00
  TRACK 02 AUDIO
    TITLE "0:"
    INDEX 01 00:01:13
  TRACK 03 AUDIO
    TITLE "4:cjc005_4267"
    INDEX 01 00:01:42
  TRACK 04 AUDIO
    TITLE "0:"
    INDEX 01 00:02:51
  TRACK 05 AUDIO
    TITLE "5:cjc005_4268"
    INDEX 01 00:03:04
  TRACK 06 AUDIO
    TITLE "0:"
    INDEX 01 00:07:03
  TRACK 07 AUDIO
    TITLE "3:cjc005_4269"
    INDEX 01 00:07:56
  TRACK 08 AUDIO
    TITLE "0:"
    INDEX 01 00:08:66
  TRACK 09 AUDIO
    TITLE "4:cjc005_4270"
    INDEX 01 00:09:18
  TRACK 10 AUDIO
    TITLE "0:"
    INDEX 01 00:10:55
  TRACK 11 AUDIO
    TITLE "5:cjc005_4271"
    INDEX 01 00:10:74
  TRACK 12 AUDIO
    TITLE "0:"
    INDEX 01 00:14:31
  TRACK 13 AUDIO
    TITLE "3:cjc005_4272"
    INDEX 01 00:15:07
  TRACK 14 AUDIO
    TITLE "0:"
    INDEX 01 00:16:30
  TRACK 15 AUDIO
    TITLE "4:cjc005_4273"
    INDEX 01 00:16:59
  TRACK 16 AUDIO
    TITLE "0:"
    INDEX 01 00:18:15
  TRACK 17 AUDIO
    TITLE "5:cjc005_4274"
    INDEX 01 00:18:37
  TRACK 18 AUDIO
    TITLE "0:"
    INDEX 01 00:22:66
  TRACK 19 AUDIO
    TITLE "3:cjc005_4275"
    INDEX 01 00:23:44
  TRACK 20 AUDIO
    TITLE "0:"
    INDEX 01 00:24:67
  TRACK 21 AUDIO
    TITLE "4:cjc005_4276"
    INDEX 01 00:25:21
  TRACK 22 AUDIO
    TITLE "0:"
    INDEX 01 00:26:42
  TRACK 23 AUDIO
    TITLE "5:cjc005_4277"
    INDEX 01 00:26:66
  TRACK 24 AUDIO
    TITLE "0:"
    INDEX 01 00:32:52
  TRACK 25 AUDIO
    TITLE "3:cjc005_4278"
    INDEX 01 00:33:22
  TRACK 26 AUDIO
    TITLE "0:"
    INDEX 01 00:34:18
  TRACK 27 AUDIO
    TITLE "4:cjc005_4279"
    INDEX 01 00:34:53
  TRACK 28 AUDIO
    TITLE "0:"
    INDEX 01 00:35:66
  TRACK 29 AUDIO
    TITLE "5:cjc005_4280"
    INDEX 01 00:36:13
  TRACK 30 AUDIO
    TITLE "0:"
    INDEX 01 00:40:40
  TRACK 31 AUDIO
    TITLE "3:cjc005_4281"
    INDEX 01 00:41:12
  TRACK 32 AUDIO
    TITLE "0:"
    INDEX 01 00:42:33
  TRACK 33 AUDIO
    TITLE "4:cjc005_4282"
    INDEX 01 00:42:53
  TRACK 34 AUDIO
    TITLE "0:"
    INDEX 01 00:44:03
  TRACK 35 AUDIO
    TITLE "5:cjc005_4283"
    INDEX 01 00:44:26
  TRACK 36 AUDIO
    TITLE "0:"
    INDEX 01 00:48:36
  TRACK 37 AUDIO
    TITLE "3:cjc005_4284"
    INDEX 01 00:49:12
  TRACK 38 AUDIO
    TITLE "0:"
    INDEX 01 00:50:33
  TRACK 39 AUDIO
    TITLE "4:cjc005_4285"
    INDEX 01 00:50:58
  TRACK 40 AUDIO
    TITLE "0:"
    INDEX 01 00:52:04
  TRACK 41 AUDIO
    TITLE "5:cjc005_4286"
    INDEX 01 00:52:28
  TRACK 42 AUDIO
    TITLE "0:"
    INDEX 01 00:56:72
  TRACK 43 AUDIO
    TITLE "3:cjc005_4287"
    INDEX 01 00:57:56
  TRACK 44 AUDIO
    TITLE "0:"
    INDEX 01 00:58:58
  TRACK 45 AUDIO
    TITLE "4:cjc005_4288"
    INDEX 01 00:59:10
  TRACK 46 AUDIO
    TITLE "0:"
    INDEX 01 01:00:66
  TRACK 47 AUDIO
    TITLE "5:cjc005_4289"
    INDEX 01 01:01:21
  TRACK 48 AUDIO
    TITLE "0:"
    INDEX 01 01:05:03
  TRACK 49 AUDIO
    TITLE "3:cjc005_4290"
    INDEX 01 01:05:62
  TRACK 50 AUDIO
    TITLE "0:"
    INDEX 01 01:06:69
  TRACK 51 AUDIO
    TITLE "4:cjc005_4291"
    INDEX 01 01:07:21
  TRACK 52 AUDIO
    TITLE "0:"
    INDEX 01 01:08:36
  TRACK 53 AUDIO
    TITLE "5:cjc005_4292"
    INDEX 01 01:08:58
  TRACK 54 AUDIO
    TITLE "0:"
    INDEX 01 01:12:21
  TRACK 55 AUDIO
    TITLE "3:cjc005_4293"
    INDEX 01 01:13:00
  TRACK 56 AUDIO
    TITLE "0:"
    INDEX 01 01:14:06
  TRACK 57 AUDIO
    TITLE "4:cjc005_4294"
    INDEX 01 01:14:37
  TRACK 58 AUDIO
    TITLE "0:"
    INDEX 01 01:16:01
  TRACK 59 AUDIO
    TITLE "5:cjc005_4295"
    INDEX 01 01:16:28
  TRACK 60 AUDIO
    TITLE "0:"
    INDEX 01 01:20:69
